<?xml version="1.0" encoding="utf-8"?>
<!-- Generator: Adobe Illustrator 22.1.0, SVG Export Plug-In . SVG Version: 6.00 Build 0)  -->
<svg version="1.1" id="Camada_1" xmlns="http://www.w3.org/2000/svg" xmlns:xlink="http://www.w3.org/1999/xlink" x="0px" y="0px"
	 viewBox="0 0 300 100" style="enable-background:new 0 0 300 100;" xml:space="preserve">
<style type="text/css">
	.st0{fill:#333333;}
</style>
<g>
	<path class="st0" d="M75,82H63.6c-1.3,0-2.2-0.6-2.6-1.9l-2.4-8.2H36.1l-2.4,8.2c-0.4,1.4-1.3,1.9-2.6,1.9H19.8
		c-1.7,0-2.5-0.9-1.9-2.6l19.5-59.9c0.4-1.3,1.4-1.9,2.7-1.9h14.7c1.3,0,2.3,0.6,2.7,1.9l19.5,59.9C77.4,81.1,76.6,82,75,82z
		 M54.6,58.1l-7.2-24.4l-7.2,24.4H54.6z"/>
	<path class="st0" d="M126.6,67.1c-2.9,9.6-11.9,16.2-22.6,16.2c-14,0-24.4-10.6-24.4-24.3S90,34.8,103.9,34.8
		c10.8,0,19.8,6.6,22.6,16.2c0.6,1.6-0.4,2.6-1.9,2.6h-10.1c-1.2,0-2-0.6-2.8-1.6c-1.7-2.3-4.5-3.6-7.8-3.6c-6,0-10.6,4.3-10.6,10.7
		s4.6,10.7,10.6,10.7c3.3,0,6.2-1.3,7.8-3.5c0.7-1.1,1.5-1.7,2.8-1.7h10.1C126.2,64.6,127.1,65.6,126.6,67.1z"/>
	<path class="st0" d="M157,35.3c1.6-0.3,2.4,0.7,2.4,2.2v10.9c0,1.5-0.6,2.2-1.8,2.2c-5.2-0.2-10.1,2.4-10.1,9.8v19.4
		c0,1.5-0.8,2.3-2.3,2.3h-9.2c-1.5,0-2.3-0.8-2.3-2.3V38.3c0-1.5,0.8-2.3,2.3-2.3h9.2c1.5,0,2.3,0.8,2.3,2.3v5
		C148.8,38.7,152.4,36,157,35.3L157,35.3z"/>
	<path class="st0" d="M162.2,59c0-13.7,10.9-24.3,24.4-24.3s24.4,10.6,24.4,24.3s-10.9,24.3-24.4,24.3S162.2,72.8,162.2,59z
		 M197.1,59c0-6.5-4.6-10.9-10.6-10.9S176,52.5,176,59s4.6,10.9,10.6,10.9S197.1,65.6,197.1,59z"/>
	<path class="st0" d="M259.2,52.9v26.9c0,1.5-0.8,2.3-2.3,2.3h-9.2c-1.5,0-2.3-0.8-2.3-2.3V54.1c0-4.6-2.7-6.6-6.2-6.6
		c-4.1,0-6.7,2.3-6.7,7.7v24.6c0,1.5-0.8,2.3-2.3,2.3H221c-1.5,0-2.3-0.8-2.3-2.3V38.3c0-1.5,0.8-2.3,2.3-2.3h9.2
		c1.5,0,2.3,0.8,2.3,2.3v1.9c2.2-3.2,6.1-5.5,12-5.5C253.1,34.8,259.2,41.4,259.2,52.9z"/>
	<path class="st0" d="M268.1,28.2v-8.3c0-1.5,0.8-2.3,2.3-2.3h9.2c1.5,0,2.3,0.8,2.3,2.3v8.3c0,1.5-0.8,2.3-2.3,2.3h-9.2
		C269,30.5,268.1,29.7,268.1,28.2z M268.1,79.7V38.3c0-1.5,0.8-2.3,2.3-2.3h9.2c1.5,0,2.3,0.8,2.3,2.3v41.4c0,1.5-0.8,2.3-2.3,2.3
		h-9.2C269,82,268.1,81.2,268.1,79.7z"/>
</g>
</svg>
