<?xml version="1.0" encoding="utf-8"?>
<!-- Generator: Adobe Illustrator 22.1.0, SVG Export Plug-In . SVG Version: 6.00 Build 0)  -->
<svg version="1.1" id="Camada_1" xmlns="http://www.w3.org/2000/svg" xmlns:xlink="http://www.w3.org/1999/xlink" x="0px" y="0px"
	 viewBox="0 0 200 200" style="enable-background:new 0 0 200 200;" xml:space="preserve">
<style type="text/css">
	.st0{fill:#333333;}
	.st1{fill:#F2F2F2;}
</style>
<g>
	<path class="st0" d="M190.1,184.1c0,3.3-2.7,6-6,6H16c-3.3,0-6-2.7-6-6V16c0-3.3,2.7-6,6-6h168.1c3.3,0,6,2.7,6,6V184.1z"/>
</g>
<g>
	<path class="st1" d="M123.3,127.6h-10.2c-1.2,0-2-0.5-2.3-1.7l-2.2-7.4H88.3l-2.2,7.4c-0.3,1.2-1.2,1.7-2.3,1.7H73.6
		c-1.5,0-2.2-0.8-1.7-2.3l17.6-53.9c0.3-1.2,1.2-1.7,2.4-1.7h13.3c1.2,0,2.1,0.6,2.4,1.7l17.6,53.9
		C125.6,126.8,124.8,127.6,123.3,127.6z M105,106.1l-6.5-22l-6.5,22H105z"/>
</g>
</svg>
